<?xml version="1.0" encoding="UTF-8" standalone="no"?>
<!DOCTYPE svg PUBLIC "-//W3C//DTD SVG 1.1//EN" "http://www.w3.org/Graphics/SVG/1.1/DTD/svg11.dtd">
<!-- Created with Vectornator (http://vectornator.io/) -->
<svg height="100%" stroke-miterlimit="10" style="fill-rule:nonzero;clip-rule:evenodd;stroke-linecap:round;stroke-linejoin:round;" version="1.1" viewBox="0 0 640 640" width="100%" xml:space="preserve" xmlns="http://www.w3.org/2000/svg" xmlns:xlink="http://www.w3.org/1999/xlink">
<defs/>
<g id="Arrows" transform="scale(0.9 0.9)" transform-origin="center">

<path d="M114.5 491.945C112.886 489.822 111.273 487.699 109.659 485.576C111.879 484.268 113.534 482.59 114.626 480.544C121.854 474.63 129.082 468.715 136.31 462.801C213.088 552.734 305.223 573.132 412.717 523.992C404.176 510.298 396.084 496.351 388.442 482.15C438.053 478.558 487.663 474.967 537.275 471.375C511.145 513.672 484.386 555.58 456.997 597.103C448.665 584.118 440.712 570.903 433.136 557.459C432.468 557.129 431.799 556.801 431.13 556.472C384.947 577.857 336.643 587.573 286.218 585.622C229.953 580.465 181.24 558.251 140.078 518.978C130.985 510.487 122.459 501.477 114.5 491.945Z" fill="LightSalmon" fill-rule="evenodd" opacity="0.4" stroke="none"/>
<path d="M270.629 49.1857C273.276 48.8608 275.922 48.536 278.569 48.2111C278.581 50.7882 279.197 53.0634 280.414 55.0372C281.882 64.2604 283.35 73.4836 284.818 82.7068C168.452 103.728 104.419 173.044 92.7187 290.656C108.85 290.177 124.975 290.213 141.092 290.764C119.203 335.43 97.315 380.095 75.426 424.761C52.0507 380.882 29.328 336.655 7.25534 292.078C22.6693 291.422 38.0922 291.209 53.5218 291.437C54.1433 291.025 54.7637 290.612 55.3851 290.201C60.1766 239.533 76.116 192.911 103.203 150.334C136.001 104.327 179.73 73.4372 234.391 57.6631C246.306 54.0851 258.385 51.2594 270.629 49.1857Z" fill="LightSalmon" fill-rule="evenodd" opacity="0.9" stroke="none"/>
<path d="M568.465 413.956C567.364 416.385 566.263 418.813 565.162 421.242C562.955 419.911 560.692 419.251 558.373 419.263C549.735 415.713 541.096 412.164 532.458 408.613C575.109 298.324 549.278 207.562 454.963 136.328C446.972 150.349 438.545 164.096 429.681 177.568C402.947 135.622 376.214 93.6768 349.481 51.7304C399.114 54.6244 448.704 58.2567 498.254 62.6263C490.787 76.1268 482.938 89.4046 474.708 102.458C474.736 103.203 474.765 103.948 474.793 104.693C515.554 135.168 547.056 173.054 569.298 218.35C591.496 270.308 595.096 323.726 580.098 378.605C576.948 390.64 573.07 402.424 568.465 413.956Z" fill="LightSalmon" fill-rule="evenodd" opacity="0.7" stroke="none"/>
</g>
</svg>
